<svg width="118" height="118" viewBox="0 0 118 118" fill="none" xmlns="http://www.w3.org/2000/svg">
<path fill-rule="evenodd" clip-rule="evenodd" d="M116 116C113.657 118.343 109.858 118.343 107.515 116L1.99996 10.4852C-0.343181 8.1421 -0.343181 4.34311 1.99996 1.99996V1.99996C4.34311 -0.343181 8.14211 -0.343176 10.4853 1.99997L116 107.515C118.343 109.858 118.343 113.657 116 116V116Z" fill="#2B2D31"/>
<path fill-rule="evenodd" clip-rule="evenodd" d="M2.00003 116C-0.343116 113.657 -0.343112 109.858 2.00003 107.515L107.515 1.99996C109.858 -0.343182 113.657 -0.343181 116 1.99996V1.99996C118.343 4.34311 118.343 8.1421 116 10.4853L10.4853 116C8.14217 118.343 4.34317 118.343 2.00003 116V116Z" fill="#2B2D31"/>
</svg>
