<svg width="30" height="26" viewBox="0 0 30 26" fill="none" xmlns="http://www.w3.org/2000/svg">
<path fill-rule="evenodd" clip-rule="evenodd" d="M30 25.9368H0L0 24.041H30V25.9368Z" fill="black"/>
<path d="M3.40039 0H26.8786V26H3.40039V0Z" fill="black"/>
<path fill-rule="evenodd" clip-rule="evenodd" d="M25.0036 1.89583H5.27539V24.1042H25.0036V1.89583ZM3.40039 0V26H26.8786V0H3.40039Z" fill="black"/>
<path fill-rule="evenodd" clip-rule="evenodd" d="M17.9566 16.4194C16.5402 18.153 14.8393 18.6537 13.5463 18.6537H12.2727L12.3785 17.3704C12.5572 15.202 12.0193 14.2016 11.5353 13.7389C11.0251 13.2511 10.319 13.1135 9.7254 13.1736L9.49219 10.8155C10.5392 10.7097 11.9987 10.9205 13.1456 12.017C14.072 12.9027 14.6476 14.224 14.7427 16.0258C15.1977 15.8242 15.6844 15.4795 16.1497 14.9101C17.1002 13.7467 18.0445 11.5403 18.2827 7.44609L20.6224 7.58525C20.3684 11.9511 19.3439 14.7214 17.9566 16.4194Z" fill="white"/>
</svg>
