<svg width="128" height="116" viewBox="0 0 128 116" fill="none" xmlns="http://www.w3.org/2000/svg">
<path fill-rule="evenodd" clip-rule="evenodd" d="M124 24C124 32.0301 120.056 39.1391 114 43.4958V108H128V116H0V108H14V5H85.3352C89.3908 1.8652 94.4776 0 100 0C113.255 0 124 10.7452 124 24ZM78.6636 13H22V107H106V47.2439C104.082 47.7375 102.072 48 100 48C86.7452 48 76 37.2548 76 24C76 20.0353 76.9613 16.2952 78.6636 13ZM71.25 36H34V44H71.25V36ZM34 55.5H94V63.5H34V55.5ZM94 75H34V83H94V75ZM97.1527 35C99.9264 35 103.538 34.0205 106.518 30.709C109.422 27.4826 111.489 22.3082 112 14.3324L105.843 14C105.373 21.3269 103.517 25.1541 101.763 27.1036C101.239 27.6851 100.706 28.1213 100.185 28.4462C99.8165 25.5828 98.6691 23.3712 96.8687 21.8087C94.3801 19.6489 91.2311 19.2463 89 19.4511L89.6137 25.0841C90.6517 24.9889 91.8179 25.2165 92.6311 25.9222C93.3754 26.5682 94.4239 28.14 94.0794 31.9344L93.801 35H97.1527Z" fill="#2B2D31"/>
</svg>
