<svg width="14" height="14" viewBox="0 0 14 14" fill="none" xmlns="http://www.w3.org/2000/svg">
<path fill-rule="evenodd" clip-rule="evenodd" d="M7 13.0667C10.3505 13.0667 13.0667 10.3505 13.0667 7C13.0667 3.64947 10.3505 0.933333 7 0.933333C3.64947 0.933333 0.933333 3.64947 0.933333 7C0.933333 10.3505 3.64947 13.0667 7 13.0667ZM7 14C10.866 14 14 10.866 14 7C14 3.13401 10.866 0 7 0C3.13401 0 0 3.13401 0 7C0 10.866 3.13401 14 7 14Z" fill="#2B2D31"/>
<path d="M8.89941 4.93686C8.5388 4.59589 8.1111 4.3231 7.5073 4.24733V3.38351H6.67707V4.26248C5.79652 4.41403 5.25141 4.98233 5.25141 5.80826C5.25141 7.39192 7.80082 7.30099 7.80082 8.32393C7.80082 8.75583 7.53246 8.99073 6.94542 8.99073C6.46741 8.99073 6.02294 8.8013 5.5617 8.47547L5.0166 9.22563C5.46107 9.58934 6.10681 9.82424 6.67707 9.88486V10.7335H7.5073V9.85455C8.47171 9.68784 8.98327 9.07408 8.98327 8.24815C8.98327 6.55083 6.43387 6.6948 6.43387 5.75522C6.43387 5.33846 6.71061 5.1263 7.2054 5.1263C7.63309 5.1263 7.93499 5.28542 8.27883 5.57336L8.89941 4.93686Z" fill="#2B2D31"/>
</svg>
