<svg width="128" height="116" viewBox="0 0 128 116" fill="none" xmlns="http://www.w3.org/2000/svg">
<path fill-rule="evenodd" clip-rule="evenodd" d="M114 43.4958C120.056 39.1391 124 32.0301 124 24C124 10.7452 113.255 0 100 0C94.4776 0 89.3908 1.8652 85.3352 5H14V108H0V116H128V108H114V43.4958ZM78.6636 13C76.9613 16.2952 76 20.0353 76 24C76 37.2548 86.7452 48 100 48C102.072 48 104.082 47.7375 106 47.2439V107H22V13H78.6636ZM71.25 36H34V44H71.25V36ZM94 55.5H34V63.5H94V55.5ZM34 75H94V83H34V75ZM88 28C90.2091 28 92 26.2091 92 24C92 21.7909 90.2091 20 88 20C85.7909 20 84 21.7909 84 24C84 26.2091 85.7909 28 88 28ZM104 24C104 26.2091 102.209 28 100 28C97.7909 28 96 26.2091 96 24C96 21.7909 97.7909 20 100 20C102.209 20 104 21.7909 104 24ZM112 28C114.209 28 116 26.2091 116 24C116 21.7909 114.209 20 112 20C109.791 20 108 21.7909 108 24C108 26.2091 109.791 28 112 28Z" fill="#2B2D31"/>
</svg>
