<svg width="93" height="28" viewBox="0 0 93 28" fill="none" xmlns="http://www.w3.org/2000/svg">
<path d="M86.522 7.56165V5.55331C86.5227 5.10179 86.3608 4.66522 86.0661 4.324C85.9185 4.1932 85.7454 4.09456 85.5578 4.03428C85.3703 3.974 85.1722 3.95341 84.9763 3.9738L84.9336 1.82966C85.4144 1.79893 85.8964 1.86883 86.3488 2.03493C86.8013 2.20103 87.2144 2.45971 87.562 2.79453C88.1674 3.41245 88.5444 4.21934 88.6304 5.08159C89.3427 4.567 90.2829 3.28053 90.2829 0H92.4198C92.4198 2.90173 91.7574 5.00298 90.4539 6.33234C89.7579 7.05514 88.818 7.49101 87.8184 7.55449L86.522 7.56165Z" fill="#4552E5"/>
<path d="M0 9.20312H2.64262L5.25675 19.3234L7.92073 9.20312H10.6275L13.1775 19.2734L15.7702 9.20312H18.3203L14.4311 21.7892H11.6959L9.17437 12.4979L6.64572 21.7892H3.91763L0 9.20312Z" fill="#211815"/>
<path d="M20.2223 4.88623H22.7936V10.6683C23.2808 10.1195 23.8825 9.68508 24.5559 9.39602C25.2293 9.10697 25.9579 8.97034 26.6899 8.99583C29.4892 8.99583 31.676 10.8469 31.676 14.3633V21.7892H29.1046V14.7564C29.1046 12.4479 27.8581 11.2615 25.9634 11.2615C24.0687 11.2615 22.8008 12.4479 22.8008 14.7564V21.7892H20.208L20.2223 4.88623Z" fill="#211815"/>
<path d="M40.0452 8.99602C40.8777 8.97115 41.7044 9.14247 42.459 9.49622C43.2136 9.84997 43.875 10.3763 44.3902 11.033V9.20329H47.0114V21.7894H44.3902V19.9168C43.872 20.5839 43.2051 21.1195 42.443 21.4808C41.6809 21.842 40.845 22.0187 40.0024 21.9966C36.7472 21.9966 34.126 19.3236 34.126 15.4356C34.126 11.5475 36.7472 8.99602 40.0452 8.99602ZM40.1876 11.2616C38.2573 11.2616 36.3911 12.6911 36.3911 15.4356C36.3911 18.1801 38.2573 19.7239 40.1876 19.7239C42.1179 19.7239 43.9913 18.1944 43.9913 15.4785C43.9913 12.7626 42.1464 11.2616 40.1876 11.2616Z" fill="#211815"/>
<path d="M50.4238 4.88623H53.0237V21.7892H50.4238V4.88623Z" fill="#211815"/>
<path d="M56.0928 5.86533C56.0942 5.538 56.1922 5.2184 56.3743 4.94681C56.5564 4.67523 56.8146 4.46383 57.1163 4.33922C57.4179 4.2146 57.7496 4.18236 58.0695 4.24656C58.3894 4.31077 58.6832 4.46856 58.9139 4.70002C59.1445 4.93148 59.3018 5.22628 59.3658 5.54726C59.4298 5.86824 59.3976 6.20104 59.2734 6.50373C59.1493 6.80642 58.9386 7.06545 58.6679 7.24819C58.3972 7.43093 58.0787 7.52919 57.7525 7.5306C57.534 7.53251 57.3173 7.49075 57.1151 7.40774C56.9129 7.32473 56.7292 7.20213 56.5747 7.04711C56.4202 6.89209 56.298 6.70776 56.2153 6.50486C56.1326 6.30196 56.0909 6.08455 56.0928 5.86533ZM56.4347 9.19589H59.0275V21.782H56.4347V9.19589Z" fill="#211815"/>
<path d="M71.3438 14.7566C71.3438 12.4481 70.0902 11.2617 68.2026 11.2617C66.315 11.2617 65.04 12.4481 65.04 14.7566V21.7894H62.4473V9.20333H65.04V10.6328C65.5054 10.1027 66.0805 9.68094 66.7252 9.39701C67.3699 9.11308 68.0686 8.9738 68.7724 8.9889C71.7071 8.9889 73.9152 10.84 73.9152 14.3564V21.7823H71.3438V14.7566Z" fill="#211815"/>
<path d="M82.2703 8.99588C83.1029 8.97045 83.9299 9.1415 84.6845 9.49529C85.4392 9.84908 86.1006 10.3757 86.6154 11.0328V9.20315H89.2295V21.9965C89.2295 25.42 87.0285 28.0001 83.1108 28.0001C79.763 28.0001 77.2843 26.3348 76.9637 23.5474H79.5351C79.9269 24.8482 81.3087 25.7416 83.0966 25.7416C85.0982 25.7416 86.6011 24.5051 86.6011 21.9965V19.8952C86.0891 20.5599 85.43 21.0958 84.6758 21.4605C83.9216 21.8252 83.0932 22.0088 82.2561 21.9965C78.951 21.9965 76.3369 19.3235 76.3369 15.4354C76.3369 11.5474 78.9653 8.99588 82.2703 8.99588ZM82.4128 11.2615C80.4754 11.2615 78.6091 12.691 78.6091 15.4354C78.6091 18.1799 80.4754 19.7237 82.4128 19.7237C84.3503 19.7237 86.2093 18.1942 86.2093 15.4783C86.2093 12.7624 84.3716 11.2615 82.4128 11.2615Z" fill="#211815"/>
</svg>
