<svg width="20" height="20" viewBox="0 0 20 20" fill="none" xmlns="http://www.w3.org/2000/svg">
<path fill-rule="evenodd" clip-rule="evenodd" d="M14.9168 8.16304C14.9168 11.9277 11.8777 14.9796 8.12882 14.9796C4.37992 14.9796 1.34084 11.9277 1.34084 8.16304C1.34084 4.39836 4.37992 1.34648 8.12882 1.34648C11.8777 1.34648 14.9168 4.39836 14.9168 8.16304ZM13.4285 14.3529C12.0054 15.5827 10.1536 16.3261 8.12882 16.3261C3.6394 16.3261 0 12.6714 0 8.16304C0 3.65472 3.6394 0 8.12882 0C12.6182 0 16.2576 3.65472 16.2576 8.16304C16.2576 10.1534 15.5483 11.9773 14.3697 13.3939L20 19.0479L19.0519 20L13.4285 14.3529Z" fill="#2B2D31"/>
</svg>
