<svg width="30" height="30" viewBox="0 0 30 30" fill="none" xmlns="http://www.w3.org/2000/svg">
<circle cx="15" cy="15" r="15" fill="#DADCFA"/>
<mask id="mask0_1110_4082" style="mask-type:alpha" maskUnits="userSpaceOnUse" x="0" y="0" width="30" height="30">
<circle cx="15" cy="15" r="15" fill="#DADCFA"/>
</mask>
<g mask="url(#mask0_1110_4082)">
<path d="M19.0405 8.27584C16.4166 8.27254 13.8662 9.14164 11.7904 10.7464C10.6902 11.4115 9.40546 11.7054 8.12556 11.585C6.84565 11.4645 5.63832 10.9359 4.68159 10.0773C4.0536 11.5752 3.96756 13.2453 4.43828 14.7999C4.909 16.3545 5.90701 17.6963 7.26049 18.5944C7.12004 19.6256 7.11906 20.671 7.25757 21.7025C7.24972 21.7025 7.24165 21.7025 7.2338 21.7043C7.24771 21.7446 7.25959 21.7861 7.27327 21.8267C7.37646 22.5605 7.54848 23.2829 7.78703 23.9845C7.87943 24.6045 7.92612 25.2305 7.92674 25.8574C7.27327 29.1957 6.24235 31.2994 4.39028 34.6616C5.26553 35.176 6.24248 35.4932 7.25297 35.5911C8.26345 35.689 9.28313 35.5653 10.2409 35.2285C11.1986 34.8917 12.0713 34.35 12.7981 33.6412C13.5249 32.9323 14.0882 32.0735 14.4489 31.1244C16.0717 31.8039 17.825 32.1146 19.5825 32.0341C21.3399 31.9537 23.0575 31.4841 24.6115 30.6593C26.1654 29.8345 27.5168 28.675 28.5682 27.2644C29.6196 25.8539 30.3448 24.2276 30.6914 22.5028C31.038 20.778 30.9974 18.9978 30.5725 17.2906C30.1476 15.5834 29.349 13.9919 28.2344 12.6308C27.1197 11.2697 25.7168 10.173 24.1269 9.41992C22.537 8.66681 20.7997 8.27606 19.0405 8.27584Z" fill="#4652E6"/>
<path d="M30.708 22.4796C30.3667 24.2129 29.6443 25.8486 28.5931 27.2684C27.5419 28.6881 26.1882 29.8564 24.6299 30.6886C23.0717 31.5209 21.3479 31.9963 19.5833 32.0804C17.8188 32.1645 16.0576 31.8552 14.4273 31.175C14.2123 31.7402 13.9245 32.275 13.5713 32.7658C13.7699 31.3297 14.2129 29.9383 14.8811 28.6517C16.3185 25.8751 18.7179 23.7171 21.6308 22.5811C24.5437 21.4452 27.7706 21.4091 30.7082 22.4796H30.708Z" fill="#F5F5F5"/>
<path d="M4.13966 12.7696C4.138 11.8416 4.32254 10.9228 4.68235 10.0674C5.63557 10.9233 6.83785 11.4515 8.11306 11.5746C9.38827 11.6977 10.6694 11.4092 11.7687 10.7513C9.2914 12.6656 7.67055 15.4809 7.25901 18.5845C6.29946 17.948 5.51241 17.0839 4.96811 16.0693C4.42381 15.0546 4.13919 13.921 4.13966 12.7696Z" fill="#2E39C4"/>
<rect x="21.2012" y="17.6252" width="1.63619" height="2.33742" rx="0.818097" fill="black"/>
<rect x="26.8115" y="17.6252" width="1.63619" height="2.33742" rx="0.818097" fill="black"/>
</g>
</svg>
