<svg width="56" height="56" viewBox="0 0 56 56" fill="none" xmlns="http://www.w3.org/2000/svg">
<circle cx="28" cy="28" r="28" fill="#2B2D31"/>
<rect width="30.625" height="30.625" transform="translate(12.25 13.125)" fill="#2B2D31"/>
<path d="M17.89 39.3847C17.5321 39.384 17.1908 39.2331 16.9496 38.9687C16.7039 38.7064 16.5818 38.3517 16.614 37.9938L16.9266 34.5561L31.3688 20.119L35.8822 24.6311L21.4438 39.0669L18.0061 39.3796C17.9666 39.3834 17.927 39.3847 17.89 39.3847ZM36.7831 23.7289L32.271 19.2168L34.9775 16.5103C35.2168 16.2707 35.5416 16.1361 35.8803 16.1361C36.2189 16.1361 36.5437 16.2707 36.7831 16.5103L39.4896 19.2168C39.7292 19.4562 39.8638 19.7809 39.8638 20.1196C39.8638 20.4583 39.7292 20.7831 39.4896 21.0224L36.7843 23.7276L36.7831 23.7289Z" fill="white"/>
</svg>
