<svg width="30" height="26" viewBox="0 0 30 26" fill="none" xmlns="http://www.w3.org/2000/svg">
<path fill-rule="evenodd" clip-rule="evenodd" d="M30 25.6518H0L0 23.7768H30V25.6518Z" fill="black"/>
<path fill-rule="evenodd" clip-rule="evenodd" d="M25.0036 1.875H5.27539V23.8393H25.0036V1.875ZM3.40039 0V25.7143H26.8786V0H3.40039Z" fill="black"/>
<path fill-rule="evenodd" clip-rule="evenodd" d="M17.9571 16.239C16.5407 17.9535 14.8398 18.4487 13.5468 18.4487H12.2732L12.379 17.1795C12.5577 15.0349 12.0198 14.0456 11.5358 13.5879C11.0256 13.1055 10.3195 12.9694 9.72589 13.0288L9.49268 10.6967C10.5397 10.592 11.9992 10.8005 13.1461 11.8849C14.0725 12.7609 14.6481 14.0677 14.7432 15.8497C15.1982 15.6503 15.6849 15.3094 16.1501 14.7463C17.1007 13.5956 18.045 11.4135 18.2832 7.36426L20.6229 7.50189C20.3689 11.8198 19.3444 14.5596 17.9571 16.239Z" fill="black"/>
</svg>
