<svg width="211" height="57" viewBox="0 0 211 57" fill="none" xmlns="http://www.w3.org/2000/svg">
<path d="M0 12.313H6.22326L12.3794 36.1459L18.653 12.313H25.0272L31.0324 36.0281L37.1382 12.313H43.1434L33.9847 41.9527H27.5433L21.6053 20.0721L15.6504 41.9527H9.22585L0 12.313Z" fill="#211815"/>
<path d="M47.6219 2.14697H53.6774V15.7634C54.8247 14.471 56.2416 13.448 57.8274 12.7673C59.4133 12.0866 61.1291 11.7649 62.853 11.8249C69.4453 11.8249 74.595 16.1842 74.595 24.4651V41.9527H68.5394V25.3908C68.5394 19.9544 65.6039 17.1604 61.142 17.1604C56.68 17.1604 53.6942 19.9544 53.6942 25.3908V41.9527H47.5884L47.6219 2.14697Z" fill="#211815"/>
<path d="M94.3046 11.8252C96.2652 11.7666 98.2121 12.17 99.9891 13.0031C101.766 13.8362 103.324 15.0756 104.537 16.6221V12.3133H110.71V41.9529H104.537V37.5432C103.317 39.114 101.746 40.3755 99.9515 41.2262C98.1568 42.0769 96.1882 42.493 94.204 42.4411C86.5382 42.4411 80.3652 36.1462 80.3652 26.9901C80.3652 17.8339 86.5382 11.8252 94.3046 11.8252ZM94.6401 17.1606C90.0943 17.1606 85.6994 20.5269 85.6994 26.9901C85.6994 33.4532 90.0943 37.0888 94.6401 37.0888C99.1859 37.0888 103.598 33.4869 103.598 27.091C103.598 20.6952 99.253 17.1606 94.6401 17.1606Z" fill="#211815"/>
<path d="M118.745 2.14697H124.868V41.9527H118.745V2.14697Z" fill="#211815"/>
<path d="M132.097 4.45292C132.1 3.68206 132.331 2.92941 132.76 2.28985C133.189 1.65029 133.797 1.15245 134.507 0.858987C135.218 0.565528 135.999 0.489584 136.752 0.640789C137.505 0.791994 138.197 1.16358 138.74 1.70866C139.284 2.25375 139.654 2.94798 139.805 3.70387C139.955 4.45976 139.88 5.24349 139.587 5.95631C139.295 6.66914 138.799 7.27915 138.161 7.70949C137.524 8.13984 136.774 8.37123 136.005 8.37456C135.491 8.37905 134.981 8.28072 134.505 8.08523C134.028 7.88973 133.596 7.60102 133.232 7.23596C132.868 6.8709 132.58 6.43681 132.385 5.95898C132.191 5.48116 132.093 4.96917 132.097 4.45292ZM132.902 12.2963H139.008V41.9359H132.902V12.2963Z" fill="#211815"/>
<path d="M168.011 25.3906C168.011 19.9541 165.059 17.1601 160.613 17.1601C156.168 17.1601 153.166 19.9541 153.166 25.3906V41.9524H147.06V12.3128H153.166V15.679C154.262 14.4307 155.616 13.4375 157.134 12.7689C158.652 12.1002 160.298 11.7722 161.955 11.8078C168.866 11.8078 174.066 16.1671 174.066 24.448V41.9356H168.011V25.3906Z" fill="#211815"/>
<path d="M193.743 11.8254C195.703 11.7655 197.651 12.1683 199.428 13.0015C201.205 13.8347 202.763 15.0749 203.975 16.6223V12.3135H210.131V42.4413C210.131 50.5034 204.948 56.5795 195.722 56.5795C187.838 56.5795 182.001 52.6578 181.246 46.0937H187.301C188.224 49.1569 191.478 51.2608 195.689 51.2608C200.402 51.2608 203.941 48.3491 203.941 42.4413V37.4929C202.736 39.0582 201.184 40.3202 199.408 41.1791C197.632 42.038 195.681 42.4702 193.709 42.4413C185.926 42.4413 179.77 36.1465 179.77 26.9903C179.77 17.8341 185.959 11.8254 193.743 11.8254ZM194.078 17.1609C189.516 17.1609 185.121 20.5271 185.121 26.9903C185.121 33.4535 189.516 37.089 194.078 37.089C198.641 37.089 203.019 33.4871 203.019 27.0913C203.019 20.6954 198.691 17.1609 194.078 17.1609Z" fill="#211815"/>
</svg>
