<svg width="89" height="118" viewBox="0 0 89 118" fill="none" xmlns="http://www.w3.org/2000/svg">
<path d="M41.0923 23V16.8913C41.0946 15.5179 40.5756 14.19 39.6308 13.1522C39.1574 12.7543 38.6026 12.4543 38.0012 12.2709C37.3999 12.0876 36.7651 12.0249 36.137 12.087L36 5.56522C37.5415 5.47175 39.0865 5.68435 40.5371 6.18957C41.9877 6.69479 43.3121 7.48161 44.4263 8.50002C46.3674 10.3795 47.5758 12.8338 47.8516 15.4565C50.1351 13.8913 53.1494 9.97827 53.1494 0H60C60 8.8261 57.8763 15.2174 53.6974 19.2609C51.4663 21.4594 48.453 22.7852 45.2484 22.9782L41.0923 23Z" fill="#4552E5"/>
<path d="M49.1689 27.7647C40.5115 27.7538 32.0963 30.6214 25.247 35.9164C21.617 38.1108 17.3779 39.0807 13.1548 38.6832C8.93175 38.2857 4.94815 36.5417 1.79137 33.7085C-0.280684 38.6511 -0.564578 44.1616 0.988566 49.291C2.54171 54.4204 5.83469 58.8479 10.3005 61.8109C9.83712 65.2135 9.83388 68.6629 10.2909 72.0663C10.265 72.0663 10.2384 72.0663 10.2125 72.0722C10.2583 72.2054 10.2976 72.3423 10.3427 72.4762C10.6832 74.8973 11.2507 77.281 12.0379 79.5958C12.3427 81.6416 12.4968 83.7072 12.4988 85.7757C10.3427 96.7905 6.94114 103.732 0.830202 114.825C3.71811 116.522 6.94159 117.569 10.2757 117.892C13.6098 118.215 16.9743 117.807 20.1343 116.696C23.2944 115.584 26.1739 113.797 28.572 111.458C30.9701 109.119 32.8289 106.286 34.0189 103.154C39.3733 105.396 45.1585 106.421 50.9572 106.156C56.7559 105.89 62.4233 104.341 67.5505 101.619C72.6777 98.8979 77.1368 95.0721 80.606 90.4181C84.0752 85.7641 86.468 80.398 87.6116 74.707C88.7552 69.016 88.6212 63.1421 87.2193 57.5092C85.8173 51.8763 83.1823 46.6249 79.5045 42.134C75.8267 37.643 71.1978 34.0245 65.9518 31.5396C60.7058 29.0547 54.9736 27.7654 49.1689 27.7647Z" fill="#4652E6"/>
<path d="M87.6665 74.6307C86.5404 80.3497 84.1568 85.7468 80.6884 90.4313C77.2199 95.1159 72.7533 98.9707 67.6118 101.717C62.4704 104.463 56.7827 106.031 50.9605 106.309C45.1383 106.586 39.3272 105.566 33.9478 103.321C33.2386 105.186 32.2891 106.951 31.1235 108.57C31.7788 103.832 33.2405 99.2408 35.4454 94.9957C40.1879 85.8343 48.1049 78.7138 57.7161 74.9657C67.3273 71.2176 77.9746 71.0985 87.6672 74.6307H87.6665Z" fill="#F5F5F5"/>
<path d="M0.00302735 42.5909C-0.00245029 39.529 0.606438 36.4972 1.79365 33.6748C4.93884 36.4991 8.9058 38.2419 13.1134 38.648C17.321 39.0542 21.548 38.1022 25.1753 35.9316C17.0014 42.2477 11.6533 51.5369 10.2954 61.7772C7.12936 59.6773 4.53247 56.8262 2.73654 53.4783C0.940601 50.1305 0.00149372 46.3901 0.00302735 42.5909Z" fill="#2E39C4"/>
<rect x="56.3004" y="58.6143" width="5.39867" height="7.71238" rx="2.69933" fill="black"/>
<rect x="74.8101" y="58.6143" width="5.39867" height="7.71238" rx="2.69933" fill="black"/>
</svg>
