<svg width="119" height="159" viewBox="0 0 119 159" fill="none" xmlns="http://www.w3.org/2000/svg">
<path d="M55.2011 30.8968V22.6908C55.2042 20.8459 54.5069 19.062 53.2378 17.6678C52.6019 17.1334 51.8565 16.7303 51.0487 16.484C50.2409 16.2377 49.3881 16.1536 48.5444 16.2369L48.3604 7.47598C50.4311 7.35042 52.5066 7.63601 54.4552 8.3147C56.4038 8.99338 58.183 10.0503 59.6797 11.4184C62.2872 13.9432 63.9106 17.2402 64.281 20.7633C67.3486 18.6607 71.3978 13.4042 71.3978 0H80.6005C80.6005 11.8564 77.7476 20.4421 72.134 25.8739C69.1369 28.8272 65.089 30.6082 60.7841 30.8676L55.2011 30.8968Z" fill="#4552E5"/>
<path d="M66.0505 37.2974C54.4208 37.2828 43.1162 41.135 33.9154 48.248C29.039 51.1958 23.3445 52.4987 17.6714 51.9647C11.9984 51.4307 6.64704 49.088 2.40642 45.2819C-0.377054 51.9216 -0.75842 59.324 1.32798 66.2146C3.41438 73.1052 7.83798 79.0527 13.8371 83.0331C13.2146 87.6038 13.2102 92.2376 13.8242 96.8095C13.7894 96.8095 13.7536 96.8095 13.7188 96.8175C13.7804 96.9964 13.8331 97.1803 13.8938 97.3602C14.3512 100.613 15.1136 103.815 16.171 106.924C16.5805 109.672 16.7875 112.447 16.7902 115.226C13.8938 130.023 9.32432 139.347 1.11524 154.249C4.99469 156.529 9.32491 157.935 13.8038 158.369C18.2826 158.803 22.8023 158.255 27.0473 156.762C31.2923 155.269 35.1605 152.868 38.3819 149.726C41.6033 146.585 44.1004 142.778 45.6989 138.571C52.8917 141.583 60.6633 142.96 68.4529 142.603C76.2425 142.247 83.8558 140.165 90.7433 136.51C97.6309 132.854 103.621 127.714 108.281 121.462C112.942 115.21 116.156 108.002 117.692 100.357C119.228 92.712 119.048 84.8214 117.165 77.2545C115.282 69.6876 111.742 62.6331 106.802 56.6002C101.861 50.5673 95.6428 45.7065 88.5957 42.3684C81.5485 39.0303 73.8482 37.2983 66.0505 37.2974Z" fill="#4652E6"/>
<path d="M117.765 100.255C116.252 107.937 113.05 115.188 108.391 121.48C103.732 127.773 97.7315 132.952 90.8248 136.641C83.918 140.329 76.2776 142.436 68.4563 142.809C60.6351 143.182 52.8289 141.811 45.6026 138.796C44.6498 141.301 43.3744 143.672 41.8086 145.847C42.6888 139.482 44.6525 133.315 47.6144 127.612C53.9851 115.305 64.6203 105.74 77.5314 100.705C90.4425 95.6699 104.746 95.5099 117.766 100.255H117.765Z" fill="#F5F5F5"/>
<path d="M0.00395546 57.2144C-0.00340288 53.1013 0.814541 49.0284 2.40937 45.2371C6.63443 49.031 11.9634 51.3723 17.6156 51.9178C23.2678 52.4633 28.9462 51.1845 33.8189 48.2687C22.8385 56.7533 15.6542 69.232 13.8301 82.9881C9.57704 80.1672 6.08854 76.3372 3.67599 71.8399C1.26344 67.3426 0.00189527 62.318 0.00395546 57.2144Z" fill="#2E39C4"/>
<rect x="75.6309" y="78.7388" width="7.25225" height="10.3604" rx="3.62612" fill="black"/>
<rect x="100.496" y="78.7388" width="7.25225" height="10.3604" rx="3.62612" fill="black"/>
</svg>
